MoBL_ARMS_module2_4_allmuscles_shoulder_states	
version=1	
nRows=168	
nColumns=2	
inDegrees=yes	
	
# SIMM Motion File Header:	
name MoBL_ARMS_module2_4_allmuscles_shoulder_states	
datacolumns 2	
datarows 168	
otherdata 1	
range 0 0.322271914	
endheader	
time	shoulder_elv
0	20.00000041
0.001509228	19.99974667
0.003836675	19.99834414
0.006054542	19.99587202
0.00827241	19.99231879
0.010145775	19.9884974
0.01201914	19.98394411
0.013892505	19.97867756
0.015765869	19.97271412
0.017837682	19.96532258
0.019909494	19.95710782
0.021981306	19.9480802
0.023339158	19.94172652
0.025193491	19.93249435
0.027047823	19.92262496
0.029122615	19.91083075
0.031197406	19.89824749
0.033272197	19.88487946
0.035164249	19.87200773
0.0370563	19.85848952
0.03851627	19.84761829
0.040401236	19.83301714
0.042286202	19.81778144
0.043774596	19.80530442
0.045627804	19.78922
0.047481012	19.77252945
0.049243369	19.75609774
0.051005727	19.73912303
0.052768084	19.72160844
0.054530442	19.70355651
0.056498544	19.68276459
0.058466646	19.66130862
0.060434749	19.63919195
0.062153909	19.61933459
0.06387307	19.59897833
0.065531617	19.57886937
0.067190164	19.55830046
0.068848711	19.53727419
0.070707275	19.51317126
0.07256584	19.48849882
0.074424404	19.46325983
0.076282968	19.43745691
0.078141532	19.41109289
0.080172854	19.38163937
0.082204175	19.35152239
0.083871363	19.32631095
0.085538551	19.30065646
0.087205739	19.27456106
0.089032906	19.24545715
0.090860074	19.21582752
0.092687241	19.18567497
0.094514408	19.15500177
0.097061374	19.11137974
0.09960834	19.06675559
0.101194321	19.0384642
0.102780302	19.00978771
0.107724529	18.91793067
0.109243038	18.88897587
0.110761547	18.8596734
0.112280056	18.83002476
0.115455313	18.76691286
0.116671628	18.74233915
0.11845319	18.70594888
0.120311031	18.66750037
0.122168872	18.62854291
0.124026713	18.58907908
0.125633798	18.55453508
0.127591592	18.51194482
0.129549387	18.46880007
0.131382692	18.42789869
0.13348725	18.38035263
0.135591807	18.33217733
0.138330829	18.26854302
0.139909085	18.23139968
0.142025828	18.18104017
0.144142571	18.13006328
0.145854785	18.08837982
0.147566999	18.04629821
0.150026532	17.98515784
0.151652723	17.94428844
0.153278915	17.90306813
0.156194781	17.82828559
0.157580634	17.79235408
0.159716532	17.73648944
0.161180016	17.69787397
0.162951017	17.65077953
0.164722018	17.60328895
0.166649385	17.55115851
0.168576751	17.49856672
0.170460085	17.44673463
0.172493228	17.39029356
0.174526371	17.33335304
0.177292292	17.25509657
0.178896069	17.20930654
0.181033367	17.14781573
0.183170664	17.08579603
0.185552252	17.01607098
0.187531122	16.95764798
0.189248177	16.90659892
0.190965232	16.85522298
0.192961769	16.79507762
0.1947156	16.74188603
0.196469431	16.68836365
0.198439061	16.62786537
0.200408691	16.56695829
0.202378321	16.50564751
0.20434795	16.44393766
0.205980043	16.39250423
0.207612136	16.34080249
0.209244229	16.28883547
0.212607711	16.18091376
0.213907269	16.13892225
0.215946427	16.0727072
0.21735966	16.02658637
0.219385342	15.96015281
0.221024099	15.90613156
0.222662855	15.85186517
0.224301611	15.79735666
0.227439728	15.69231007
0.228781983	15.64711566
0.230962547	15.57336397
0.232196104	15.53146295
0.234135824	15.46531645
0.235817175	15.40772791
0.238020954	15.33189501
0.240224734	15.25567101
0.242147913	15.1888381
0.243868083	15.12881542
0.245588253	15.06856537
0.24749254	15.00160508
0.249396828	14.93437448
0.251301116	14.86687916
0.253205404	14.79912505
0.255536768	14.71583171
0.257868132	14.63217067
0.259556248	14.57136872
0.261244364	14.51038389
0.26342809	14.4312308
0.265091139	14.37075693
0.266754189	14.31012187
0.269750212	14.20049754
0.271319373	14.1428919
0.272888535	14.08516102
0.275767092	13.97894419
0.276966999	13.93455421
0.27885368	13.86462558
0.280823483	13.79145056
0.282695677	13.72175147
0.28456787	13.65191269
0.287081999	13.55792012
0.28893791	13.48839192
0.290793821	13.41874963
0.292649731	13.34900116
0.296031391	13.22166214
0.297905714	13.15096231
0.299780037	13.08018092
0.30165436	13.00932465
0.303528683	12.93840131
0.305403006	12.86742095
0.307277329	12.79639653
0.309151652	12.72534327
0.311025976	12.65427677
0.312900299	12.58321262
0.314774622	12.51216587
0.316648945	12.4411498
0.318523268	12.37017602
0.320397591	12.2992565
0.322271914	12.22840324
